<svg width="121" height="24" viewBox="0 0 121 24" fill="none" xmlns="http://www.w3.org/2000/svg">
<path d="M11.382 2.92705C11.6813 2.00574 12.9847 2.00574 13.2841 2.92705L14.8027 7.60081C14.9365 8.01284 15.3205 8.2918 15.7537 8.2918H20.668C21.6367 8.2918 22.0395 9.53141 21.2558 10.1008L17.28 12.9894C16.9296 13.244 16.7829 13.6954 16.9168 14.1074L18.4354 18.7812C18.7347 19.7025 17.6802 20.4686 16.8965 19.8992L12.9208 17.0106C12.5703 16.756 12.0957 16.756 11.7452 17.0106L7.76948 19.8992C6.98577 20.4686 5.93129 19.7025 6.23064 18.7812L7.74924 14.1074C7.88311 13.6954 7.73645 13.244 7.38597 12.9894L3.41023 10.1008C2.62652 9.53141 3.02929 8.2918 3.99801 8.2918H8.9123C9.34552 8.2918 9.72948 8.01284 9.86335 7.60081L11.382 2.92705Z" fill="#FFB31F"/>
<path d="M35.382 2.92705C35.6813 2.00574 36.9847 2.00574 37.2841 2.92705L38.8027 7.60081C38.9365 8.01284 39.3205 8.2918 39.7537 8.2918H44.668C45.6367 8.2918 46.0395 9.53141 45.2558 10.1008L41.28 12.9894C40.9296 13.244 40.7829 13.6954 40.9168 14.1074L42.4354 18.7812C42.7347 19.7025 41.6802 20.4686 40.8965 19.8992L36.9208 17.0106C36.5703 16.756 36.0957 16.756 35.7452 17.0106L31.7695 19.8992C30.9858 20.4686 29.9313 19.7025 30.2306 18.7812L31.7492 14.1074C31.8831 13.6954 31.7365 13.244 31.386 12.9894L27.4102 10.1008C26.6265 9.53141 27.0293 8.2918 27.998 8.2918H32.9123C33.3455 8.2918 33.7295 8.01284 33.8634 7.60081L35.382 2.92705Z" fill="#FFB31F"/>
<path d="M59.382 2.92705C59.6813 2.00574 60.9847 2.00574 61.2841 2.92705L62.8027 7.60081C62.9365 8.01284 63.3205 8.2918 63.7537 8.2918H68.668C69.6367 8.2918 70.0395 9.53141 69.2558 10.1008L65.28 12.9894C64.9296 13.244 64.7829 13.6954 64.9168 14.1074L66.4354 18.7812C66.7347 19.7025 65.6802 20.4686 64.8965 19.8992L60.9208 17.0106C60.5703 16.756 60.0957 16.756 59.7452 17.0106L55.7695 19.8992C54.9858 20.4686 53.9313 19.7025 54.2306 18.7812L55.7492 14.1074C55.8831 13.6954 55.7365 13.244 55.386 12.9894L51.4102 10.1008C50.6265 9.53141 51.0293 8.2918 51.998 8.2918H56.9123C57.3455 8.2918 57.7295 8.01284 57.8634 7.60081L59.382 2.92705Z" fill="#FFB31F"/>
<path d="M83.382 2.92705C83.6813 2.00574 84.9847 2.00574 85.2841 2.92705L86.8027 7.60081C86.9365 8.01284 87.3205 8.2918 87.7537 8.2918H92.668C93.6367 8.2918 94.0395 9.53141 93.2558 10.1008L89.28 12.9894C88.9296 13.244 88.7829 13.6954 88.9168 14.1074L90.4354 18.7812C90.7347 19.7025 89.6802 20.4686 88.8965 19.8992L84.9208 17.0106C84.5703 16.756 84.0957 16.756 83.7452 17.0106L79.7695 19.8992C78.9858 20.4686 77.9313 19.7025 78.2306 18.7812L79.7492 14.1074C79.8831 13.6954 79.7365 13.244 79.386 12.9894L75.4102 10.1008C74.6265 9.53141 75.0293 8.2918 75.998 8.2918H80.9123C81.3455 8.2918 81.7295 8.01284 81.8634 7.60081L83.382 2.92705Z" fill="#FFB31F"/>
<path d="M107.382 2.92705C107.681 2.00574 108.985 2.00574 109.284 2.92705L110.803 7.60081C110.937 8.01284 111.32 8.2918 111.754 8.2918H116.668C117.637 8.2918 118.04 9.53141 117.256 10.1008L113.28 12.9894C112.93 13.244 112.783 13.6954 112.917 14.1074L114.435 18.7812C114.735 19.7025 113.68 20.4686 112.897 19.8992L108.921 17.0106C108.57 16.756 108.096 16.756 107.745 17.0106L103.769 19.8992C102.986 20.4686 101.931 19.7025 102.231 18.7812L103.749 14.1074C103.883 13.6954 103.736 13.244 103.386 12.9894L99.4102 10.1008C98.6265 9.53141 99.0293 8.2918 99.998 8.2918H104.912C105.346 8.2918 105.729 8.01284 105.863 7.60081L107.382 2.92705Z" fill="#D9D9D9"/>
</svg>
